<svg width="52" height="33" fill="none" xmlns="http://www.w3.org/2000/svg"><mask id="a" style="mask-type:alpha" maskUnits="userSpaceOnUse" x="0" y="0" width="52" height="33"><path d="M0 0h52v33H0V0Z" fill="#D9D9D9"/></mask><g mask="url(#a)"><path fill-rule="evenodd" clip-rule="evenodd" d="M50.848 55.74c12.09 0 21.892-9.802 21.892-21.893 0-12.09-9.801-21.892-21.892-21.892s-21.893 9.801-21.893 21.892S38.757 55.74 50.848 55.74Zm0 4.237c14.43 0 26.13-11.698 26.13-26.13 0-14.43-11.7-26.13-26.13-26.13-14.431 0-26.13 11.7-26.13 26.13 0 14.432 11.698 26.13 26.13 26.13Z" fill="#000"/><path fill-rule="evenodd" clip-rule="evenodd" d="M50.848 63.085c16.147 0 29.237-13.09 29.237-29.238 0-16.147-13.09-29.237-29.237-29.237C34.7 4.61 21.61 17.7 21.61 33.847c0 16.148 13.09 29.238 29.238 29.238Zm0 4.237c18.487 0 33.474-14.987 33.474-33.475C84.322 15.36 69.335.373 50.848.373 32.36.373 17.373 15.36 17.373 33.847c0 18.488 14.987 33.475 33.475 33.475Z" fill="#000"/><path fill-rule="evenodd" clip-rule="evenodd" d="M50.848 63.085c16.147 0 29.237-13.09 29.237-29.238 0-16.147-13.09-29.237-29.237-29.237C34.7 4.61 21.61 17.7 21.61 33.847c0 16.148 13.09 29.238 29.238 29.238Zm0 4.237c18.487 0 33.474-14.987 33.474-33.475C84.322 15.36 69.335.373 50.848.373 32.36.373 17.373 15.36 17.373 33.847c0 18.488 14.987 33.475 33.475 33.475Z" fill="#000"/><path fill-rule="evenodd" clip-rule="evenodd" d="M50.848 63.085c16.147 0 29.237-13.09 29.237-29.238 0-16.147-13.09-29.237-29.237-29.237C34.7 4.61 21.61 17.7 21.61 33.847c0 16.148 13.09 29.238 29.238 29.238Zm0 4.237c18.487 0 33.474-14.987 33.474-33.475C84.322 15.36 69.335.373 50.848.373 32.36.373 17.373 15.36 17.373 33.847c0 18.488 14.987 33.475 33.475 33.475Z" fill="#000"/><path fill-rule="evenodd" clip-rule="evenodd" d="M50.847 48.395c8.035 0 14.548-6.513 14.548-14.548 0-8.034-6.513-14.548-14.548-14.548-8.034 0-14.548 6.514-14.548 14.548 0 8.035 6.514 14.548 14.548 14.548Zm0 4.238c10.375 0 18.786-8.41 18.786-18.786 0-10.374-8.41-18.785-18.786-18.785-10.375 0-18.785 8.41-18.785 18.785s8.41 18.786 18.785 18.786Z" fill="#000"/><mask id="b" style="mask-type:alpha" maskUnits="userSpaceOnUse" x="-19" y="-33" width="70" height="67"><path fill-rule="evenodd" clip-rule="evenodd" d="M50.706 33.847V-2.525C30.654-2.525 14.4 13.76 14.4 33.847h36.307Zm0 0v-66.242c-69.632 0-69.632 0-69.632 66.243h69.632Z" fill="#000"/></mask><g mask="url(#b)" fill-rule="evenodd" clip-rule="evenodd" fill="#000"><path d="M2.966 55.74c12.091 0 21.893-9.801 21.893-21.892S15.057 11.955 2.966 11.955c-12.09 0-21.892 9.802-21.892 21.893 0 12.09 9.801 21.892 21.892 21.892Zm0 4.237c14.432 0 26.13-11.698 26.13-26.13 0-14.43-11.698-26.13-26.13-26.13-14.43 0-26.13 11.7-26.13 26.13 0 14.432 11.7 26.13 26.13 26.13Z"/><path d="M2.966 63.085c16.148 0 29.238-13.09 29.238-29.237C32.204 17.7 19.114 4.61 2.966 4.61-13.18 4.61-26.27 17.7-26.27 33.848c0 16.147 13.09 29.237 29.237 29.237Zm0 4.237c18.488 0 33.475-14.987 33.475-33.474C36.44 15.36 21.454.373 2.966.373c-18.487 0-33.474 14.987-33.474 33.475 0 18.487 14.987 33.474 33.474 33.474Z"/><path d="M2.966 48.396c8.035 0 14.549-6.514 14.549-14.548C17.515 25.813 11 19.3 2.966 19.3c-8.034 0-14.548 6.513-14.548 14.548 0 8.034 6.514 14.548 14.548 14.548Zm0 4.237c10.375 0 18.786-8.41 18.786-18.785s-8.41-18.786-18.786-18.786c-10.374 0-18.785 8.41-18.785 18.786 0 10.374 8.41 18.785 18.785 18.785Z"/></g></g></svg>