<svg width="206" height="37" fill="none" xmlns="http://www.w3.org/2000/svg"><path d="m185.112 26.523 2.829-16.666h4.288l3.338 8.886 3.316-8.886h4.288L206 26.523h-4.31l-1.437-9.593-3.934 9.593h-1.725l-3.735-9.593-1.437 9.593h-4.31ZM171.066 9.643v9.063c0 .486.015.987.044 1.503.044.5.155.958.332 1.37.191.413.486.752.884 1.017.398.25.958.376 1.68.376s1.274-.125 1.657-.376a2.45 2.45 0 0 0 .885-1.017c.191-.412.302-.87.331-1.37.044-.516.067-1.017.067-1.503V9.643h4.31v9.66c0 2.593-.597 4.487-1.791 5.68-1.179 1.194-2.998 1.79-5.459 1.79-2.461 0-4.289-.596-5.482-1.79-1.194-1.193-1.791-3.087-1.791-5.68v-9.66h4.333ZM162.146 9.857v16.666h-4.332V9.857h4.332ZM145.37 17.306h.817c.855 0 1.511-.177 1.968-.53.456-.354.685-.862.685-1.526 0-.663-.229-1.171-.685-1.525-.457-.354-1.113-.53-1.968-.53h-.817v4.111Zm9.526 9.217h-5.393l-4.133-6.41v6.41h-4.333V9.857h6.742c.928 0 1.739.14 2.431.42.693.265 1.26.634 1.702 1.105a4.497 4.497 0 0 1 1.017 1.636c.236.619.354 1.282.354 1.99 0 1.267-.31 2.298-.929 3.094-.604.78-1.503 1.311-2.696 1.591l5.238 6.83ZM131.273 20.334l-1.945-5.548-1.945 5.548h3.89Zm1.149 3.294h-6.189l-.995 2.895h-4.619l6.344-16.666h4.73l6.344 16.666h-4.62l-.995-2.895ZM109.766 17.306h.818c.855 0 1.51-.177 1.967-.53.457-.354.685-.862.685-1.526 0-.663-.228-1.171-.685-1.525-.457-.354-1.112-.53-1.967-.53h-.818v4.111Zm9.527 9.217h-5.394l-4.133-6.41v6.41h-4.332V9.857h6.741c.929 0 1.739.14 2.432.42.692.265 1.26.634 1.702 1.105a4.497 4.497 0 0 1 1.017 1.636c.235.619.353 1.282.353 1.99 0 1.267-.309 2.298-.928 3.094-.604.78-1.503 1.311-2.697 1.591l5.239 6.83ZM92.992 17.232h8.598c0 .884-.037 1.687-.11 2.409a8.557 8.557 0 0 1-.442 2.011c-.31.87-.73 1.643-1.26 2.321a7.575 7.575 0 0 1-1.88 1.68 8.812 8.812 0 0 1-2.342 1.017c-.855.236-1.754.354-2.697.354-1.297 0-2.483-.214-3.559-.641a8.112 8.112 0 0 1-2.74-1.79 8.303 8.303 0 0 1-1.791-2.786c-.427-1.09-.641-2.291-.641-3.603 0-1.297.206-2.483.619-3.559.427-1.09 1.024-2.019 1.79-2.785.781-.766 1.717-1.363 2.807-1.79 1.091-.428 2.307-.641 3.648-.641 1.739 0 3.264.375 4.575 1.127 1.312.752 2.35 1.916 3.117 3.493l-4.111 1.702c-.384-.914-.885-1.57-1.503-1.968-.605-.398-1.297-.597-2.078-.597a4.09 4.09 0 0 0-1.769.376c-.53.236-.987.582-1.37 1.04-.368.441-.663.979-.884 1.613-.207.633-.31 1.34-.31 2.122 0 .707.089 1.363.265 1.967.192.604.472 1.127.84 1.57.369.441.826.788 1.37 1.038.546.236 1.18.354 1.902.354.427 0 .84-.044 1.238-.133a3.463 3.463 0 0 0 1.06-.464c.325-.221.59-.5.796-.84.207-.339.347-.751.42-1.238h-3.558v-3.36ZM75.654 20.334l-1.945-5.548-1.945 5.548h3.89Zm1.15 3.294h-6.19l-.994 2.895H65l6.344-16.666h4.73l6.344 16.666h-4.62l-.994-2.895ZM52.056 4.593V0C32.016 0 15.77 16.246 15.77 36.286h4.593c0-17.503 14.19-31.693 31.693-31.693Z" fill="#000"/><path fill-rule="evenodd" clip-rule="evenodd" d="M28.325 36.286H23.73c0-15.643 12.682-28.325 28.325-28.325v4.594c-13.106 0-23.731 10.625-23.731 23.731Z" fill="#D9D9D9"/><path fill-rule="evenodd" clip-rule="evenodd" d="M28.325 36.286c0-13.107 10.625-23.731 23.731-23.731V7.96c-15.643 0-28.325 12.682-28.325 28.325h4.594Z" fill="#000"/><path d="M52.056 20.517v-4.594c-11.246 0-20.363 9.117-20.363 20.363h4.593c0-8.709 7.06-15.77 15.77-15.77Z" fill="#000"/><path fill-rule="evenodd" clip-rule="evenodd" d="M13.397 27.962a39.95 39.95 0 0 1 1.636-5.412 20.473 20.473 0 0 0-3.676-3.168A20.268 20.268 0 0 0 0 15.923v4.593c3.67 0 7.049 1.254 9.728 3.358a15.853 15.853 0 0 1 3.669 4.088ZM0 12.555a23.62 23.62 0 0 1 12.805 3.748 23.835 23.835 0 0 1 3.678 2.91 40.202 40.202 0 0 1 2.321-4.11 28.43 28.43 0 0 0-3.678-2.769A28.192 28.192 0 0 0 0 7.962v4.593Zm0-7.962c6.29 0 12.15 1.832 17.08 4.991a31.819 31.819 0 0 1 3.678 2.752 40.48 40.48 0 0 1 3.006-3.472 36.43 36.43 0 0 0-3.677-2.802A36.117 36.117 0 0 0 0 0v4.593Z" fill="#000"/><path fill-rule="evenodd" clip-rule="evenodd" d="M0 0v4.593c6.29 0 12.15 1.832 17.08 4.991a31.819 31.819 0 0 1 3.678 2.752 40.48 40.48 0 0 1 3.006-3.472 36.43 36.43 0 0 0-3.677-2.802A36.117 36.117 0 0 0 0 0ZM0 7.962v4.593a23.62 23.62 0 0 1 12.805 3.748 23.835 23.835 0 0 1 3.678 2.91 40.202 40.202 0 0 1 2.321-4.11 28.43 28.43 0 0 0-3.678-2.769A28.192 28.192 0 0 0 0 7.962ZM0 15.923v4.593c3.67 0 7.049 1.254 9.728 3.358a15.853 15.853 0 0 1 3.669 4.088 39.95 39.95 0 0 1 1.636-5.412 20.473 20.473 0 0 0-3.676-3.168A20.268 20.268 0 0 0 0 15.923Z" fill="#000"/></svg>