<svg width="206" height="33" fill="none" xmlns="http://www.w3.org/2000/svg"><mask id="a" style="mask-type:alpha" maskUnits="userSpaceOnUse" x="0" y="0" width="52" height="33"><path d="M0 0h52v33H0V0Z" fill="#D9D9D9"/></mask><g mask="url(#a)"><path fill-rule="evenodd" clip-rule="evenodd" d="M50.848 55.74c12.09 0 21.892-9.802 21.892-21.893 0-12.09-9.801-21.892-21.892-21.892s-21.893 9.801-21.893 21.892S38.757 55.74 50.848 55.74Zm0 4.237c14.43 0 26.13-11.699 26.13-26.13 0-14.43-11.7-26.13-26.13-26.13-14.431 0-26.13 11.7-26.13 26.13 0 14.431 11.698 26.13 26.13 26.13Z" fill="#000"/><path fill-rule="evenodd" clip-rule="evenodd" d="M50.848 63.085c16.147 0 29.237-13.09 29.237-29.237 0-16.148-13.09-29.238-29.237-29.238C34.7 4.61 21.61 17.7 21.61 33.848c0 16.147 13.09 29.237 29.238 29.237Zm0 4.237c18.487 0 33.474-14.987 33.474-33.474C84.322 15.36 69.335.373 50.848.373 32.36.373 17.373 15.36 17.373 33.848c0 18.487 14.987 33.474 33.475 33.474Z" fill="#000"/><path fill-rule="evenodd" clip-rule="evenodd" d="M50.848 63.085c16.147 0 29.237-13.09 29.237-29.237 0-16.148-13.09-29.238-29.237-29.238C34.7 4.61 21.61 17.7 21.61 33.848c0 16.147 13.09 29.237 29.238 29.237Zm0 4.237c18.487 0 33.474-14.987 33.474-33.474C84.322 15.36 69.335.373 50.848.373 32.36.373 17.373 15.36 17.373 33.848c0 18.487 14.987 33.474 33.475 33.474Z" fill="#000"/><path fill-rule="evenodd" clip-rule="evenodd" d="M50.848 63.085c16.147 0 29.237-13.09 29.237-29.237 0-16.148-13.09-29.238-29.237-29.238C34.7 4.61 21.61 17.7 21.61 33.848c0 16.147 13.09 29.237 29.238 29.237Zm0 4.237c18.487 0 33.474-14.987 33.474-33.474C84.322 15.36 69.335.373 50.848.373 32.36.373 17.373 15.36 17.373 33.848c0 18.487 14.987 33.474 33.475 33.474Z" fill="#000"/><path fill-rule="evenodd" clip-rule="evenodd" d="M50.847 48.395c8.035 0 14.548-6.513 14.548-14.548 0-8.034-6.513-14.548-14.548-14.548-8.034 0-14.548 6.514-14.548 14.548 0 8.035 6.514 14.548 14.548 14.548Zm0 4.238c10.375 0 18.786-8.41 18.786-18.786 0-10.375-8.41-18.785-18.786-18.785-10.375 0-18.785 8.41-18.785 18.785s8.41 18.786 18.785 18.786Z" fill="#000"/><mask id="b" style="mask-type:alpha" maskUnits="userSpaceOnUse" x="-19" y="-33" width="70" height="67"><path fill-rule="evenodd" clip-rule="evenodd" d="M50.706 33.847V-2.525C30.654-2.525 14.4 13.76 14.4 33.847h36.307Zm0 0v-66.242c-69.632 0-69.632 0-69.632 66.242h69.632Z" fill="#000"/></mask><g mask="url(#b)" fill-rule="evenodd" clip-rule="evenodd" fill="#000"><path d="M2.966 55.74c12.091 0 21.893-9.801 21.893-21.892S15.057 11.955 2.966 11.955c-12.09 0-21.892 9.802-21.892 21.893 0 12.09 9.801 21.892 21.892 21.892Zm0 4.238c14.432 0 26.13-11.7 26.13-26.13 0-14.431-11.698-26.13-26.13-26.13-14.43 0-26.13 11.698-26.13 26.13 0 14.43 11.7 26.13 26.13 26.13Z"/><path d="M2.966 63.085c16.148 0 29.238-13.09 29.238-29.237C32.204 17.7 19.114 4.61 2.966 4.61-13.18 4.61-26.27 17.7-26.27 33.848c0 16.147 13.09 29.237 29.237 29.237Zm0 4.237c18.488 0 33.475-14.987 33.475-33.474C36.44 15.36 21.454.373 2.966.373c-18.487 0-33.474 14.987-33.474 33.475 0 18.487 14.987 33.474 33.474 33.474Z"/><path d="M2.966 48.396c8.035 0 14.549-6.514 14.549-14.548C17.515 25.813 11 19.3 2.966 19.3c-8.034 0-14.548 6.513-14.548 14.548s6.514 14.548 14.548 14.548Zm0 4.237c10.375 0 18.786-8.41 18.786-18.785s-8.41-18.785-18.786-18.785c-10.374 0-18.785 8.41-18.785 18.785s8.41 18.785 18.785 18.785Z"/></g></g><path d="m185.112 25.13 2.829-16.666h4.288l3.338 8.886 3.316-8.886h4.288L206 25.131h-4.31l-1.437-9.593-3.934 9.593h-1.725l-3.735-9.593-1.437 9.593h-4.31ZM171.066 8.464v9.063c0 .486.015.987.044 1.503.044.501.155.958.332 1.37.191.413.486.752.884 1.017.398.25.958.376 1.68.376s1.274-.125 1.657-.376a2.45 2.45 0 0 0 .885-1.016c.191-.413.302-.87.331-1.37.044-.517.067-1.018.067-1.504V8.464h4.31v9.66c0 2.593-.597 4.487-1.791 5.68-1.179 1.194-2.998 1.791-5.459 1.791-2.461 0-4.289-.597-5.482-1.79-1.194-1.194-1.791-3.088-1.791-5.681v-9.66h4.333ZM162.147 8.464v16.667h-4.333V8.464h4.333ZM145.37 15.913h.818c.855 0 1.51-.176 1.967-.53.457-.354.685-.862.685-1.525 0-.663-.228-1.172-.685-1.525-.457-.354-1.112-.53-1.967-.53h-.818v4.11Zm9.527 9.218h-5.394l-4.133-6.41v6.41h-4.332V8.464h6.741c.929 0 1.739.14 2.432.42.692.266 1.26.634 1.702 1.106a4.497 4.497 0 0 1 1.017 1.635c.235.62.353 1.282.353 1.99 0 1.267-.309 2.298-.928 3.094-.604.781-1.503 1.312-2.697 1.592l5.239 6.83ZM131.273 18.942l-1.945-5.548-1.945 5.548h3.89Zm1.149 3.293h-6.189l-.995 2.896h-4.619l6.344-16.667h4.73l6.344 16.667h-4.62l-.995-2.896ZM109.766 15.913h.818c.855 0 1.51-.176 1.967-.53.457-.354.685-.862.685-1.525 0-.663-.228-1.172-.685-1.525-.457-.354-1.112-.53-1.967-.53h-.818v4.11Zm9.527 9.218h-5.394l-4.133-6.41v6.41h-4.332V8.464h6.741c.929 0 1.739.14 2.432.42.692.266 1.26.634 1.702 1.106a4.497 4.497 0 0 1 1.017 1.635c.235.62.353 1.282.353 1.99 0 1.267-.309 2.298-.928 3.094-.604.781-1.503 1.312-2.697 1.592l5.239 6.83ZM92.992 15.803h8.598c0 .884-.037 1.687-.11 2.41a8.557 8.557 0 0 1-.442 2.01c-.31.87-.73 1.644-1.26 2.322a7.575 7.575 0 0 1-1.88 1.68 8.815 8.815 0 0 1-2.342 1.016c-.855.236-1.754.354-2.697.354-1.297 0-2.483-.214-3.559-.641a8.112 8.112 0 0 1-2.74-1.79 8.304 8.304 0 0 1-1.791-2.786c-.427-1.09-.641-2.291-.641-3.603 0-1.296.206-2.483.619-3.558.427-1.09 1.024-2.02 1.79-2.786.781-.766 1.717-1.363 2.807-1.79C90.435 8.214 91.651 8 92.992 8c1.739 0 3.264.376 4.575 1.127 1.312.752 2.35 1.916 3.117 3.493l-4.111 1.702c-.384-.914-.885-1.57-1.503-1.967-.605-.398-1.297-.597-2.078-.597a4.09 4.09 0 0 0-1.769.376c-.53.235-.987.582-1.37 1.038-.368.442-.663.98-.884 1.614-.207.634-.31 1.341-.31 2.122 0 .707.089 1.363.265 1.967.192.604.472 1.128.84 1.57.369.442.826.788 1.37 1.038.546.236 1.18.354 1.902.354.427 0 .84-.044 1.238-.132a3.463 3.463 0 0 0 1.06-.465 2.71 2.71 0 0 0 .796-.84c.207-.338.347-.751.42-1.237h-3.558v-3.36ZM75.654 18.942l-1.945-5.548-1.945 5.548h3.89Zm1.15 3.293h-6.19l-.994 2.896H65l6.344-16.667h4.73l6.344 16.667h-4.62l-.994-2.896Z" fill="#000"/></svg>